<?xml version="1.0" encoding="iso-8859-1"?>
<!-- Generator: Adobe Illustrator 22.1.0, SVG Export Plug-In . SVG Version: 6.00 Build 0)  -->
<svg version="1.1" id="Layer_1" xmlns="http://www.w3.org/2000/svg" xmlns:xlink="http://www.w3.org/1999/xlink" x="0px" y="0px"
	 viewBox="0 0 1280 1024" style="enable-background:new 0 0 1280 1024;" xml:space="preserve">
<g>
	<polygon style="fill:#1745EB;" points="243.435,266.204 243.435,312.064 185.988,312.064 185.988,266.204 165.358,266.204 
		165.358,377.286 185.988,377.286 185.988,329.681 243.435,329.681 243.435,377.286 264.062,377.286 264.062,266.204 	"/>
	<path style="fill:#1745EB;" d="M372.769,286.833l20.948,48.561h-41.736L372.769,286.833z M362.773,266.204l-49.987,111.082h21.263
		l10.95-25.708h55.544l11.108,25.708h21.579l-50.145-111.082H362.773z"/>
	<polygon style="fill:#1745EB;" points="558.441,266.204 558.441,359.83 502.422,359.83 502.422,266.204 482.111,266.204 
		482.111,377.286 576.372,377.286 576.372,401.724 595.413,401.724 595.413,359.83 578.91,359.83 578.91,266.204 	"/>
	<polygon style="fill:#1745EB;" points="426.091,457.232 426.091,568.314 405.778,568.314 405.778,474.688 348.173,474.688 
		348.173,568.314 327.862,568.314 327.862,457.232 	"/>
	<path style="fill:#1745EB;" d="M561.298,496.745c0-13.965-9.365-22.056-27.457-22.056h-24.117v44.114h24.117
		C551.932,518.803,561.298,510.712,561.298,496.745 M582.085,496.745c0,24.44-18.091,39.514-47.289,39.514h-25.073v32.056h-20.629
		V457.231h45.702C563.994,457.231,582.085,472.149,582.085,496.745"/>
	<path style="fill:#1745EB;" d="M725.388,512.774c0-22.695-16.665-39.037-39.041-39.037c-22.37,0-39.035,16.343-39.035,39.037
		c0,22.693,16.665,39.035,39.035,39.035C708.723,551.81,725.388,535.467,725.388,512.774 M626.523,512.774
		c0-32.851,25.389-57.129,59.823-57.129c34.44,0,59.827,24.119,59.827,57.129c0,33.008-25.387,57.127-59.827,57.127
		C651.912,569.901,626.523,545.622,626.523,512.774"/>
	<polygon style="fill:#1745EB;" points="884.078,551.016 884.078,568.315 800.767,568.315 800.767,457.232 881.857,457.232 
		881.857,474.53 821.394,474.53 821.394,503.411 875.033,503.411 875.033,520.389 821.394,520.389 821.394,551.016 	"/>
	<polygon style="fill:#1745EB;" points="979.774,521.501 959.144,521.501 959.144,568.315 938.833,568.315 938.833,457.233 
		959.144,457.233 959.144,503.73 980.407,503.73 1012.302,457.233 1034.204,457.233 996.276,511.028 1035.632,568.315 
		1012.302,568.315 	"/>
	<polygon style="fill:#1745EB;" points="1067.054,457.232 1067.054,474.688 1103.709,474.688 1103.709,568.316 1124.184,568.316 
		1124.184,474.688 1161,474.688 1161,457.232 	"/>
	<path style="fill:#1745EB;" d="M207.996,702.945c0-33.168,25.389-57.129,59.507-57.129c18.091,0,33.643,6.507,43.959,18.566
		l-13.33,12.536c-8.095-8.726-18.091-13.011-29.676-13.011c-23.007,0-39.672,16.184-39.672,39.037
		c0,22.851,16.665,39.035,39.672,39.035c11.585,0,21.581-4.285,29.676-13.171l13.33,12.697
		c-10.317,12.06-25.868,18.566-44.118,18.566C233.386,760.072,207.996,736.111,207.996,702.945"/>
	<polygon style="fill:#1745EB;" points="347.805,647.403 347.805,664.86 384.46,664.86 384.46,758.486 404.936,758.486 
		404.936,664.86 441.749,664.86 441.749,647.403 	"/>
	<path style="fill:#1745EB;" d="M563.468,686.916c0-13.965-9.365-22.056-27.456-22.056h-24.117v44.114h24.117
		C554.103,708.974,563.468,700.883,563.468,686.916 M584.256,686.916c0,24.438-18.091,39.514-47.289,39.514h-25.073v32.056h-20.629
		V647.402h45.702C566.164,647.402,584.256,662.32,584.256,686.916"/>
	<path style="fill:#1745EB;" d="M727.558,702.945c0-22.695-16.665-39.037-39.041-39.037c-22.37,0-39.035,16.343-39.035,39.037
		c0,22.693,16.665,39.035,39.035,39.035C710.893,741.981,727.558,725.638,727.558,702.945 M628.694,702.945
		c0-32.849,25.389-57.129,59.823-57.129c34.438,0,59.827,24.119,59.827,57.129c0,33.008-25.389,57.127-59.827,57.127
		C654.083,760.072,628.694,735.793,628.694,702.945"/>
	<path style="fill:#1745EB;" d="M823.566,616.935h14.441c0.158,7.933,5.237,12.218,14.439,12.218c9.045,0,14.439-4.285,14.76-12.218
		h14.281c-0.158,14.758-9.996,23.009-29.041,23.009C833.248,639.945,823.725,631.693,823.566,616.935 M803.095,647.403h20.311
		v78.868l59.671-78.868h19.199v111.082h-20.313v-78.71l-59.665,78.71h-19.203V647.403z"/>
	<rect x="119.252" y="400.971" style="fill:#1745EB;" width="526.274" height="16.94"/>
	<rect x="165.36" y="599.962" style="fill:#1745EB;" width="793.895" height="16.94"/>
</g>
<g>
</g>
<g>
</g>
<g>
</g>
<g>
</g>
<g>
</g>
<g>
</g>
<g>
</g>
<g>
</g>
<g>
</g>
<g>
</g>
<g>
</g>
<g>
</g>
<g>
</g>
<g>
</g>
<g>
</g>
</svg>
